<svg xmlns="http://www.w3.org/2000/svg" viewBox="0 0 410.85 410.85">
  <defs>
    <style>
      .cls-1 {
        fill: none;
        stroke: #000;
        stroke-width: 14px;
      }
    </style>
  </defs>
  <g id="Calque_2" data-name="Calque 2">
    <g id="Calque_1-2" data-name="Calque 1">
      <path d="M172.73,186.38c-3.32,6.79-5.95,13.92-9,20.65-2.82.33-33.38.25-35.08-.11.23-.63.41-1.27.68-1.87q7-16.1,14.12-32.19,5.4-12.27,10.78-24.53,6.84-15.62,13.66-31.26c3.95-9,8-18,11.92-27,4.57-10.41,9.08-20.84,13.64-31.26,2.16-4.92,4.39-9.8,6.63-14.8h10.83l71.39,162.64a2.36,2.36,0,0,1-.17.37c-.05,0-.12.12-.17.12H247.29c-1.79-3.29-3.07-6.89-4.58-10.39l-4.5-10.37Zm53.77-27.11-21-54c-3.25,7.48-5.82,14.68-8.67,21.77-4.21,10.47-8.29,21-12.41,31.49-.06.17.05.39.1.69Z" />
      <path d="M235.52,319a2,2,0,0,1-1.68-1.6c-1.19-3.5-2.45-7-3.68-10.45-.14-.39-.25-.8-.42-1.18a3.43,3.43,0,0,0-3.05-2.21,3.35,3.35,0,0,0-3.23,1.93,10.54,10.54,0,0,0-.82,2.37q-4.78,17.41-9.55,34.84c-2,7.45-4,14.9-6.06,22.36-.16.58-.37,1.16-.58,1.79-.54,0-1.08.08-1.32-.13a3,3,0,0,1-.86-1.37c-.64-2.21-1.19-4.44-1.8-6.65q-3.76-13.8-7.54-27.6c-1.87-6.85-3.7-13.7-5.55-20.55-.39-1.41-.8-2.82-1.2-4.22a3.61,3.61,0,0,0-2.1-2.45,3.21,3.21,0,0,0-4.2,1.25A9.92,9.92,0,0,0,181,307c-1.13,3.22-2.22,6.45-3.37,9.67a21.23,21.23,0,0,1-1,2.14c-1.38,0-1.63-.88-1.93-1.77-1.24-3.7-2.53-7.38-3.81-11.07q-3.47-10-6.93-19.93a42.15,42.15,0,0,1-2.13-18.16,44.12,44.12,0,0,1,35.08-39.08,45.73,45.73,0,0,1,5-.59,29.16,29.16,0,0,1,3.95-.29c9.79.32,18.78,3,26.6,9.15a44,44,0,0,1,14.42,50.35c-1.78,4.75-3.29,9.61-5,14.42q-2.67,7.69-5.4,15.38A11.41,11.41,0,0,1,235.52,319Z" />
      <circle class="cls-1" cx="205.43" cy="205.43" r="198.43" />
    </g>
  </g>
</svg>